<svg width="18" height="18" viewBox="0 0 18 18" fill="none" xmlns="http://www.w3.org/2000/svg">
<g id="ant-design:star-filled">
<path id="Vector" d="M15.9627 6.20682L11.4996 5.55819L9.50447 1.51346C9.44997 1.40272 9.36032 1.31307 9.24958 1.25858C8.97185 1.12147 8.63435 1.23572 8.49548 1.51346L6.50036 5.55819L2.03728 6.20682C1.91423 6.2244 1.80173 6.2824 1.7156 6.37029C1.61147 6.47732 1.55409 6.62131 1.55606 6.77062C1.55804 6.91993 1.61922 7.06235 1.72614 7.16658L4.95525 10.3148L4.19236 14.7603C4.17446 14.8637 4.18591 14.9701 4.22539 15.0673C4.26487 15.1646 4.3308 15.2488 4.41572 15.3105C4.50063 15.3722 4.60113 15.4088 4.70581 15.4163C4.81049 15.4237 4.91517 15.4017 5.00798 15.3527L8.99997 13.2539L12.992 15.3527C13.1009 15.4107 13.2275 15.4301 13.3488 15.409C13.6547 15.3562 13.8603 15.0662 13.8076 14.7603L13.0447 10.3148L16.2738 7.16658C16.3617 7.08045 16.4197 6.96795 16.4373 6.8449C16.4847 6.53729 16.2703 6.25252 15.9627 6.20682Z" fill="#C98A40"/>
</g>
</svg>
